<?xml version="1.0" standalone="no"?>
<!DOCTYPE svg PUBLIC "-//W3C//DTD SVG 20010904//EN"
 "http://www.w3.org/TR/2001/REC-SVG-20010904/DTD/svg10.dtd">
<svg version="1.0" xmlns="http://www.w3.org/2000/svg"
 width="1200.000000pt" height="1200.000000pt" viewBox="0 0 1200.000000 1200.000000"
 preserveAspectRatio="xMidYMid meet">
<metadata>
Created by potrace 1.11, written by Peter Selinger 2001-2013
</metadata>
<g transform="translate(0.000000,1200.000000) scale(0.100000,-0.100000)"
fill="#000000" stroke="none">
<path d="M577 11979 c-189 -46 -348 -159 -455 -323 -43 -67 -67 -118 -101
-221 -15 -46 -16 -472 -16 -5420 0 -2953 3 -5386 7 -5407 46 -230 213 -442
423 -537 75 -34 87 -39 120 -46 17 -4 39 -10 50 -13 35 -12 10714 -12 10775
-1 216 40 401 169 513 358 26 43 47 83 47 88 0 6 6 23 14 39 8 16 22 63 30
104 14 67 16 623 15 5395 0 3104 -4 5341 -9 5370 -23 128 -55 210 -120 305
-100 147 -230 241 -420 304 l-65 21 -5365 2 c-5252 2 -5367 1 -5443 -18z"/>
</g>
</svg>
